<?xml version="1.0" encoding="utf-8"?>
<!-- Generator: Adobe Illustrator 24.1.0, SVG Export Plug-In . SVG Version: 6.00 Build 0)  -->
<svg version="1.1" id="Capa_1" xmlns="http://www.w3.org/2000/svg" xmlns:xlink="http://www.w3.org/1999/xlink" x="0px" y="0px"
	 viewBox="0 0 1053.49 290.22" style="enable-background:new 0 0 1053.49 290.22;" xml:space="preserve">
<style type="text/css">
	.st0{fill:#1C0CCF;}
	.st1{fill:#FFFFFF;}
	.st2{fill:none;stroke:url(#);stroke-width:2;stroke-miterlimit:10;}
	.st3{clip-path:url(#XMLID_27_);}
	.st4{clip-path:url(#XMLID_29_);}
	.st5{clip-path:url(#XMLID_31_);}
	.st6{clip-path:url(#XMLID_32_);}
	.st7{fill:url(#);}
	.st8{fill:#6FFDEA;}
	.st9{fill:#FF00F3;}
	.st10{fill:#1D1D1D;}
	.st11{fill:#1D1D1B;}
	.st12{fill:#EB00FF;}
	.st13{fill:#1AFFD7;}
	.st14{fill:#1B0CCF;}
	.st15{opacity:0.33;clip-path:url(#XMLID_35_);}
	.st16{opacity:0.33;clip-path:url(#XMLID_37_);}
	.st17{fill:#4D0094;}
	.st18{fill:#FFEF3B;}
	.st19{fill:#FB1700;}
	.st20{opacity:0.5;fill:#1D1D1B;}
	.st21{opacity:0.3;fill:#1D1D1B;}
	.st22{opacity:0.7;fill:#1D1D1B;}
	.st23{opacity:0.5;fill:#FFFFFF;}
	.st24{opacity:0.3;fill:#FFFFFF;}
	.st25{opacity:0.7;fill:#FFFFFF;}
</style>
<g>
	<g>
		<path class="st0" d="M545.03,48.95h32.11c32.39,0,51.25,18.59,51.25,47.83c0,29.24-18.86,47.83-51.25,47.83h-32.11V48.95z
			 M577.14,137.37c28.42,0,42.77-13.66,42.77-40.59c0-26.92-14.35-40.59-42.77-40.59h-23.91v81.17H577.14z"/>
		<path class="st0" d="M677.31,80.93v8.06c-1.5-0.68-3.55-1.23-7.79-1.23c-12.98,0-19.95,11.89-19.95,26.37v30.47h-7.93V81.34h7.93
			v17.49c2.73-10.52,9.02-18.72,20.91-18.72C672.93,80.11,675.39,80.11,677.31,80.93z"/>
		<path class="st0" d="M684.14,58.65c0-3.69,2.19-5.74,6.29-5.74c3.69,0,5.88,2.05,6.01,5.74c0,3.96-2.05,6.15-6.01,6.15
			C686.46,64.8,684.27,62.62,684.14,58.65z M686.32,81.34h7.93v63.27h-7.93V81.34z"/>
		<path class="st0" d="M765.04,81.34l-25.83,63.27h-10.39l-25.83-63.27h9.02l22,57.67l22-57.67H765.04z"/>
		<path class="st0" d="M771.73,58.65c0-3.69,2.19-5.74,6.29-5.74c3.69,0,5.88,2.05,6.01,5.74c0,3.96-2.05,6.15-6.01,6.15
			C774.05,64.8,771.87,62.62,771.73,58.65z M773.92,81.34h7.93v63.27h-7.93V81.34z"/>
		<path class="st0" d="M855.91,105.8v38.81h-7.93v-38.4c0-12.44-6.83-19-17.76-19c-12.85,0-22.28,9.84-22.28,29.38v28.01h-7.93
			V81.34h7.93v17.35c3.55-11.48,11.21-18.72,24.19-18.72C847.3,79.97,855.91,88.99,855.91,105.8z"/>
		<path class="st0" d="M929.15,81.34v61.08c0,16.4-10.93,26.78-30.2,26.78c-15.72,0-26.1-5.88-30.06-18.58l7.65-3.42
			c3.28,11.34,9.43,14.9,22.41,14.9c15.17,0,22.28-6.29,22.28-19.68v-14.89c-4.37,9.02-12.71,14.49-24.05,14.49
			c-17.49,0-29.38-12.44-29.38-31.02c0-18.72,11.89-31.02,29.38-31.02c11.34,0,19.68,5.47,24.05,14.49V81.34H929.15z M921.91,110.99
			c0-15.72-7.79-23.78-22.96-23.78c-15.31,0-23.09,8.06-23.09,23.78c0,15.58,7.79,23.64,22.82,23.64
			C913.98,134.63,921.91,126.57,921.91,110.99z"/>
		<path class="st0" d="M607.34,176.62h-32.11v88.14h-8.06v-88.14h-32.11v-7.52h72.29V176.62z"/>
		<path class="st0" d="M660.91,233.06c0,20.23-13.66,33.07-32.52,33.07c-18.86,0-32.52-12.85-32.52-33.07
			c0-20.09,13.67-32.93,32.52-32.93C647.25,200.13,660.91,212.97,660.91,233.06z M652.85,233.06c0-16.95-8.34-25.69-24.46-25.69
			c-16.12,0-24.46,8.75-24.46,25.69c0,17.08,8.34,25.83,24.46,25.83C644.51,258.89,652.85,250.14,652.85,233.06z"/>
		<path class="st0" d="M729.1,201.5v61.08c0,16.4-10.93,26.78-30.2,26.78c-15.72,0-26.1-5.88-30.06-18.58l7.65-3.42
			c3.28,11.34,9.43,14.9,22.41,14.9c15.17,0,22.28-6.29,22.28-19.68v-14.89c-4.37,9.02-12.71,14.49-24.05,14.49
			c-17.49,0-29.38-12.44-29.38-31.02c0-18.72,11.89-31.02,29.38-31.02c11.34,0,19.68,5.47,24.05,14.49V201.5H729.1z M721.86,231.15
			c0-15.72-7.79-23.78-22.96-23.78c-15.31,0-23.09,8.06-23.09,23.78c0,15.58,7.79,23.64,22.82,23.64
			C713.93,254.79,721.86,246.73,721.86,231.15z"/>
		<path class="st0" d="M800.57,235.52H749.6c0.68,16.26,7.79,23.64,22.69,23.64c11.2,0,16.4-3.42,19.4-12.85l7.52,2.87
			c-4.24,11.62-14.35,16.95-26.92,16.95c-18.86,0-30.75-12.71-30.75-32.93c0-20.09,12.44-33.07,30.34-33.07
			c17.22,0,28.7,11.89,28.7,31.57V235.52z M749.73,228.83h43.05c-0.82-15.03-7.38-21.86-20.91-21.86
			C758.34,206.96,750.96,214.34,749.73,228.83z"/>
		<path class="st0" d="M825.71,208.74v48.79h18.45v7.24h-14.35c-7.24,0-12.02-4.78-12.02-12.03v-44h-14.76v-7.24h14.76v-20.77h7.93
			v20.77h20.77v7.24H825.71z"/>
		<path class="st0" d="M911.94,225.96v38.81h-7.93v-38.4c0-12.44-6.83-19-17.76-19c-12.85,0-22.28,9.84-22.28,29.38v28.01h-7.93
			v-95.66h7.93v49.74c3.55-11.48,11.21-18.72,24.19-18.72C903.33,200.13,911.94,209.15,911.94,225.96z"/>
		<path class="st0" d="M982.86,235.52h-50.97c0.68,16.26,7.79,23.64,22.69,23.64c11.2,0,16.4-3.42,19.4-12.85l7.52,2.87
			c-4.24,11.62-14.35,16.95-26.92,16.95c-18.86,0-30.75-12.71-30.75-32.93c0-20.09,12.44-33.07,30.34-33.07
			c17.22,0,28.7,11.89,28.7,31.57V235.52z M932.02,228.83h43.05c-0.82-15.03-7.38-21.86-20.91-21.86
			C940.63,206.96,933.25,214.34,932.02,228.83z"/>
		<path class="st0" d="M1031.09,201.09v8.06c-1.5-0.68-3.55-1.23-7.79-1.23c-12.98,0-19.95,11.89-19.95,26.37v30.47h-7.93V201.5
			h7.93v17.49c2.73-10.52,9.02-18.72,20.91-18.72C1026.72,200.27,1029.18,200.27,1031.09,201.09z"/>
	</g>
	<g>
		<path class="st0" d="M424.74,151.46v-3.29c30.67-7.46,46.53-24.77,46.53-49.37c0-27.46-15.9-45.89-42.29-55.74v-3.11
			c33-0.86,41.39-6.13,41.39-38.85v-1.96h-47.71v2.27c0,28.24-10.72,33.07-39.57,33.22h-0.75c-52.4,0-88.19,23.41-88.19,64.78
			c0,22.32,13.04,41.65,47.63,49.34v3.01c-30.54,6.14-56.02,21.5-56.02,55.38c0,43.72,38.84,68.17,96.99,68.17
			c57.46,0,96.3-24.09,96.3-66.86C479.04,173.57,451.88,157.48,424.74,151.46z M382.93,75.7c25.52,0,37.9,9.06,37.9,28.09
			c0,19.02-12.38,28.08-38.5,28.08c-25.37,0-37.45-9.06-37.45-28.08C344.88,84.76,357.26,75.7,382.93,75.7z M382.31,232.48
			c-28.39,0-41.98-9.65-41.98-30.07c0-21.15,13.59-30.8,41.73-30.8c28.07,0,41.67,10.13,41.67,31.12
			C423.72,223.14,410.13,232.48,382.31,232.48z"/>
		<polygon class="st0" points="138.58,230.84 134.3,230.84 79.29,38.5 0,38.5 0,272.63 50.4,272.63 49.25,94.15 53.26,94.15 
			107.41,272.63 167.14,272.63 221.29,94.15 225.3,94.15 224.15,272.63 274.55,272.63 274.55,38.5 195.26,38.5 		"/>
	</g>
</g>
</svg>
