<?xml version="1.0" encoding="utf-8"?>
<!-- Generator: Adobe Illustrator 24.1.0, SVG Export Plug-In . SVG Version: 6.00 Build 0)  -->
<svg version="1.1" id="Capa_1" xmlns="http://www.w3.org/2000/svg" xmlns:xlink="http://www.w3.org/1999/xlink" x="0px" y="0px"
	 viewBox="0 0 971.72 290.22" style="enable-background:new 0 0 971.72 290.22;" xml:space="preserve">
<style type="text/css">
	.st0{fill:#1C0CCF;}
	.st1{fill:#FFFFFF;}
	.st2{fill:none;stroke:url(#);stroke-width:2;stroke-miterlimit:10;}
	.st3{clip-path:url(#XMLID_27_);}
	.st4{clip-path:url(#XMLID_29_);}
	.st5{clip-path:url(#XMLID_31_);}
	.st6{clip-path:url(#XMLID_32_);}
	.st7{fill:url(#);}
	.st8{fill:#6FFDEA;}
	.st9{fill:#FF00F3;}
	.st10{fill:#1D1D1D;}
	.st11{fill:#1D1D1B;}
	.st12{fill:#EB00FF;}
	.st13{fill:#1AFFD7;}
	.st14{fill:#1B0CCF;}
	.st15{opacity:0.33;clip-path:url(#XMLID_35_);}
	.st16{opacity:0.33;clip-path:url(#XMLID_37_);}
	.st17{fill:#4D0094;}
	.st18{fill:#FFEF3B;}
	.st19{fill:#FB1700;}
	.st20{opacity:0.5;fill:#1D1D1B;}
	.st21{opacity:0.3;fill:#1D1D1B;}
	.st22{opacity:0.7;fill:#1D1D1B;}
	.st23{opacity:0.5;fill:#FFFFFF;}
	.st24{opacity:0.3;fill:#FFFFFF;}
	.st25{opacity:0.7;fill:#FFFFFF;}
</style>
<g>
	<path class="st0" d="M971.72,106.68V64.41l-59.76,0.96v-3.2c21.02-4.73,19.22-19.52,19.22-34.73v-9.03h-48.14v45.99h-23.37v42.26
		h23.37v62.47c0,32.24,21.49,53.87,53.73,53.87h34.96v-42.27h-40.54v-74.07H971.72z"/>
	<rect x="446.11" y="64.36" class="st0" width="48.2" height="158.61"/>
	<path class="st0" d="M470.44,3.12c-21.64,0-32.01,8.03-32.01,25.2c0,17.05,10.14,25.21,31.44,25.21c21.99,0,32.35-8.16,32.35-25.21
		C502.23,11.15,491.86,3.12,470.44,3.12z"/>
	<path class="st0" d="M796.6,61.29c-23.71,0-42.17,13.48-47.8,38.18h-3.28l0.97-98.45h-48.2v221.95h48.2v-77.11v-17.01
		c0-14.46,9.41-21.34,28.91-21.34c19.39,0,28.79,6.88,28.79,21.34v4.41v15.04v74.66h48.2v-92.53
		C852.38,83.78,834.38,61.29,796.6,61.29z"/>
	<path class="st0" d="M636.43,172.87v-3.12c29.06-7.07,44.09-23.47,44.09-46.78c0-26.02-15.06-43.49-40.08-52.82v-2.95
		c31.28-0.81,39.22-5.81,39.22-36.82v-1.86h-45.22v2.15c0,26.76-10.16,31.34-37.5,31.48h-0.71c-49.65,0-83.57,22.18-83.57,61.39
		c0,21.15,12.36,39.47,45.13,46.76v2.85c-28.94,5.82-53.09,20.37-53.09,52.48c0,41.43,36.81,64.6,91.91,64.6
		c54.46,0,91.26-22.83,91.26-63.36C687.88,193.82,662.15,178.57,636.43,172.87z M596.81,101.07c24.19,0,35.92,8.59,35.92,26.62
		c0,18.03-11.73,26.61-36.49,26.61c-24.04,0-35.49-8.58-35.49-26.61C560.75,109.66,572.48,101.07,596.81,101.07z M596.22,249.64
		c-26.9,0-39.79-9.15-39.79-28.5c0-20.04,12.88-29.19,39.54-29.19c26.61,0,39.49,9.6,39.49,29.49
		C635.46,240.79,622.58,249.64,596.22,249.64z"/>
	<polygon class="st0" points="131.44,183.37 127.39,183.37 75.26,1.1 0.12,1.1 0.12,222.97 47.88,222.97 46.79,53.83 50.59,53.83 
		101.91,222.97 158.51,222.97 209.83,53.83 213.63,53.83 212.54,222.97 260.3,222.97 260.3,1.1 185.16,1.1 	"/>
	<path class="st0" d="M354.49,61.42c-48.09,0-80.62,33.52-80.62,83.65c0,48.84,33.12,81.17,82.21,81.17
		c52.77,0,69.43-31.78,69.43-31.78l-33.57-18.68c0,0-10.13,13.12-30.29,14.8c-0.05,0-0.09,0.01-0.14,0.01
		c-0.47,0.04-0.94,0.06-1.42,0.09c-0.89,0.04-1.79,0.08-2.72,0.08c-26.11,0-36.8-18.43-36.8-31.71h111.4
		c0.25-7.01,0.25-11.14,0.25-16.61C432.23,93.59,401.24,61.42,354.49,61.42z M320.67,127.22c0-18.4,12.21-30.64,34.13-30.64
		c21.71,0,32.2,12.23,32.2,30.64H320.67z"/>
</g>
</svg>
